<?xml version="1.0"?>
<svg xmlns="http://www.w3.org/2000/svg" width="386.681" height="331.601" viewBox="0 0 386.681 331.601">
  <defs>
    <clipPath id="a">
      <path style="fill:none" d="M0 0h386.681v331.601H0z" />
    </clipPath>
    <style>.d,.g,.i{fill:none}.c{fill:#939598}.d,.g{stroke:#000}.d,.g,.i{stroke-linecap:round}.d{stroke-miterlimit:10;stroke-width:27px}.e{fill:#f16149}.g,.i{stroke-linejoin:round}.g{stroke-width:16px}.h{fill:#101422}.i{stroke:#14254c;stroke-width:35px}.j{fill:#14264b}.k{fill:#14254c}.n{fill:#fff}</style>
  </defs>
  <g style="clip-path:url(#a)">
    <path class="c" d="M313.514 34.312a5.769 5.769 0 0 1 4.379 6.856l-3.85 17.463a5.752 5.752 0 1 1-11.234-2.478l3.85-17.463a5.77 5.77 0 0 1 6.856-4.379" />
    <path class="c" d="m315.83 50.528 9.574-43.421a5.76 5.76 0 1 0-11.248-2.48l-9.573 43.421s6.4-2.273 11.248 2.48M290.47 54.973c.768-3.483 9.233-4.578 18.907-2.445s16.894 6.686 16.126 10.169-9.233 4.578-18.907 2.445-16.892-6.686-16.126-10.169" />
    <path class="c" d="M312.958 58.923S287.348 195.2 269.41 223.614l-18.338 10.711s36.483-96 52.3-178.185z" />
    <path class="d" d="M327.742 32.307c11.728 1.523 25.645 15.128 26.019 33.1.437 21.023-25.334 34.57-43.328 36.594" />
    <path d="M264.503 235.104c17.759-49.773 37.686-104.712 47.654-163.86-1.277-2.781-11.181-4.937-14.226-3.132-8.83 57.725-29.1 109.08-46.271 159.113-2.881 9.177 9.046 14.692 12.843 7.879" />
    <path class="e" d="M307.188 176.994c2.164-5.756 2.346-8.11 3.344-10.274 2.032-4.407 8.026-9.278 25.926-10.626l.79 12.789c-14.5-1.975-19.873.885-22.058 3.968-1.319 1.86-1.284 3.531-3.159 6.615a24.956 24.956 0 0 1-10.2 9.11 86.26 86.26 0 0 0 5.359-11.582" />
    <path class="e" d="m352.743 175.573.789 10.832c-12.611-5.627-20.911-4.932-26.218-3.167-3.665 1.219-7.29 3.042-13.12 3.445a22.341 22.341 0 0 1-12.667-3.282 33.148 33.148 0 0 0 13.717-3.68c4.71-2.488 6.93-4.591 9.322-6.084 4.506-2.815 12.58-4.463 28.177 1.937" />
    <path transform="translate(201.135 277.774)" style="stroke-width:26.142px;stroke-miterlimit:10;stroke:#000;fill:none" d="m0 0 2.702 29.425" />
    <path d="m304.195 177.467-.973-40.931c-.635-26.72-22.722-46.572-46.042-41.38-22.642 5.041-35.832 31.4-27.984 55.925l12.381 38.689c5.305 16.574 20.4 26.655 35.818 23.917 15.81-2.808 27.226-18.237 26.8-36.219" />
    <path class="g" d="m93.009 278.758-54.1 35.129" />
    <path class="h" d="M275.395 314.673a8.661 8.661 0 0 0 8.755 9.166l3.29-.042 29.627-.373a5.347 5.347 0 0 0 .751-10.631l-15.76-2.753-16.274-3.344a8.659 8.659 0 0 0-10.389 7.976M46.952 314.673a8.661 8.661 0 0 1-8.755 9.166l-3.29-.042-29.627-.373a5.347 5.347 0 0 1-.753-10.631l15.761-2.753 16.274-3.344a8.659 8.659 0 0 1 10.389 7.976" />
    <path class="g" d="M346.578 273.111q-10.656 7.765-21.992 15.546-20.762 14.235-40.728 26.4" />
    <path class="i" d="M284.837 215.321c2.859-.147 6.16-.245 9.841-.218 6.21.049 22.1.256 37.787 4.7 15.061 4.265 31.327 8.871 34.668 19.228 3.989 12.361-10.855 31.611-37 45.8M255.375 209.859a576.692 576.692 0 0 0-182.392 78.609" />
    <path d="m337.947 200.422-67.345-18.457q-16.117 6.3-33.026 12.46-20.2 7.35-39.687 13.813a78.933 78.933 0 0 0 140.058-7.816M211.449 320.423l-7.628 1.361a9.366 9.366 0 0 1-10.866-7.575l-1.861-10.43a6.834 6.834 0 0 1 5.526-7.927l12.66-2.259a6.834 6.834 0 0 1 7.927 5.527l1.854 10.391a9.406 9.406 0 0 1-7.608 10.911" />
    <path class="d" d="M237.67 132.697a173.257 173.257 0 0 0-29.668 52.187 175.065 175.065 0 0 0-8.222 82.928" />
    <path class="j" d="M153.02 260.399c9.026 44.392 37.876 76 64.438 70.6s40.776-45.767 31.75-90.159-37.876-76-64.438-70.6-40.776 45.769-31.75 90.159" />
    <path class="e" d="M155.973 260.304c8.245 40.548 33.6 69.622 56.63 64.939s35.018-41.349 26.774-81.9-33.6-69.622-56.63-64.939-35.018 41.35-26.774 81.9" />
    <path d="M190.884 220.793a1.958 1.958 0 0 1-.822-.015l-1.135 3.4c2.612 1.638 4.863 5.06 5.854 9.416l-15.828 4.832a17.038 17.038 0 0 1 1.089-11.536l-2.434-2.31a2.215 2.215 0 0 1-.71.482c-1.624.5-3.419-1.209-4.01-3.808s.246-5.109 1.87-5.6c1.624-.5 3.419 1.21 4.011 3.809a7.13 7.13 0 0 1 .114 2.312l2.991 2.84a5.854 5.854 0 0 1 2.115-1.267 5.281 5.281 0 0 1 2.379-.1l1.395-4.179a6.617 6.617 0 0 1-.883-2.078c-.591-2.6.246-5.109 1.87-5.6 1.624-.5 3.419 1.21 4.011 3.809s-.247 5.108-1.87 5.6M170.688 267.326l-1.234-5.429 7.163-2.187a52.922 52.922 0 0 1-.765-5.675l-8.024-7.616 1.527-4.573 6.362 6.042a42.984 42.984 0 0 1 .527-5.272l22.647-6.913h.005a37.711 37.711 0 0 1 2.7 4.287l2.968-8.89 3.272 3.108-3.742 11.208a50.946 50.946 0 0 1 1.752 5.373l7.163-2.187 1.237 5.427-7.256 2.215a54.062 54.062 0 0 1 .595 5.395l8.286 7.868-1.526 4.57-6.767-6.425c-.626 9.243-4 16.419-9.413 18.072-5.414 1.652-11.4-2.667-15.876-10.352l-3.155 9.453-3.272-3.1 3.864-11.578a51.161 51.161 0 0 1-1.777-5.033z" />
    <path class="j" d="m229.473 319.635 7.164-5.122-79.9-111.828-3.611 10.182z" />
    <path class="k" d="m212.039 130.515 25.232-25.784c4.577 16.2 14.606 44.721 1.473 66.49zM317.244 83.943 284.42 96.708c-4.78 16.146-3.674 55.825 15.79 74.44z" />
    <path class="k" d="M240.77 180.464c25.995 14.467 73.159-52.723 55.942-81.58l-6.781-1.217c5.023 37.617-36.036 83.188-50.342 75.113z" />
    <path class="e" d="m242.889 189.399 62.07-9.863 3.296 20.75-62.069 9.863z" />
    <path class="k" d="m298.51 32.471 1.64-7.574a9.368 9.368 0 0 1 11.136-7.172l10.356 2.244a6.833 6.833 0 0 1 5.231 8.124l-2.721 12.565a6.832 6.832 0 0 1-8.124 5.231l-10.317-2.235a9.406 9.406 0 0 1-7.2-11.184M260.215 116.381a21.39 21.39 0 0 1-24.2-18.148l-3.27-22.925a26.166 26.166 0 0 1 51.808-7.386l-6.385 31.53a21.4 21.4 0 0 1-17.953 16.932" />
    <path d="m303.392 107.833 31.643-4.512a6.287 6.287 0 1 0-1.775-12.448l-31.643 4.513z" transform="translate(-68.97 -20.765)" style="fill:#e9ad6a" />
    <path d="m314.353 108.084 5.406-.771-1.481-10.385z" transform="translate(-71.883 -22.164)" style="fill:#e26841" />
    <path class="n" d="m260.472 78.319 2.251-.321a1.753 1.753 0 1 0-.494-3.47l-2.251.322a1.752 1.752 0 1 0 .5 3.469" />
    <path d="M261.065 76.479a1.776 1.776 0 1 1-2.009-1.506 1.776 1.776 0 0 1 2.009 1.506" />
    <path class="n" d="m236.827 81.691 2.251-.321a1.753 1.753 0 1 0-.494-3.47l-2.252.322a1.752 1.752 0 1 0 .5 3.469" />
    <path d="M237.415 79.85a1.776 1.776 0 1 1-2.009-1.506 1.776 1.776 0 0 1 2.009 1.506" />
    <path d="M226.805 74.578c3.773-14.8 13.821-24.459 22.331-31.113s18.53-4.246 32.888 5.854a2.315 2.315 0 0 1 .814 2.66c-.792 2.252-4.006.928-1.076 7.052 0 0 12.621 28.174 4.448 52.107-3.042 4.957-7.142 5.643-20.642 6.72 0 0 9.5-6.478 9.864-16.75-1.7-20.055-13.968-45.8-33.707-42.3-5.318.945-8.14 4.741-9.043 9.918-.585 3.356.332 8.9 1.088 13.794 1.415 9.173 1.868 16.145 4.989 23.536a19.726 19.726 0 0 0 1.788 3.382c-2.579-.932-3.539-.644-5.218-3.22-5.152-7.9-7.912-19.3-8.864-23.6a17.726 17.726 0 0 1 .344-8.038" />
  </g>
</svg>